<?xml version="1.0" standalone="no"?>
<!DOCTYPE svg PUBLIC "-//W3C//DTD SVG 20010904//EN"
 "http://www.w3.org/TR/2001/REC-SVG-20010904/DTD/svg10.dtd">
<svg version="1.0" xmlns="http://www.w3.org/2000/svg"
 width="1500.000000pt" height="1500.000000pt" viewBox="0 0 1500.000000 1500.000000"
 preserveAspectRatio="xMidYMid meet">

<g transform="translate(0.000000,1500.000000) scale(0.100000,-0.100000)"
fill="#000000" stroke="none">
<path d="M7297 12580 c-16 -10 -61 -25 -100 -35 -40 -9 -85 -21 -102 -26 -16
-5 -73 -20 -125 -33 -52 -14 -138 -36 -190 -50 -52 -14 -124 -32 -160 -41 -36
-9 -90 -24 -120 -32 -30 -8 -71 -18 -90 -22 -40 -9 -354 -91 -445 -116 -33 -9
-76 -21 -95 -25 -19 -4 -80 -20 -135 -35 -55 -14 -125 -33 -155 -41 -30 -8
-71 -19 -90 -24 -19 -4 -80 -20 -135 -35 -55 -15 -116 -30 -135 -35 -19 -4
-69 -17 -110 -27 -41 -11 -100 -26 -130 -32 -30 -7 -75 -19 -98 -27 -40 -13
-100 -29 -432 -115 -122 -32 -296 -77 -395 -104 -33 -9 -100 -27 -150 -40 -49
-13 -135 -35 -190 -50 -55 -15 -116 -31 -135 -35 -19 -4 -62 -16 -95 -25 -33
-9 -121 -32 -195 -51 -74 -20 -151 -40 -170 -45 -19 -6 -51 -14 -70 -18 -19
-5 -107 -28 -195 -51 -88 -24 -243 -64 -345 -90 -149 -38 -187 -51 -195 -67
-6 -12 -17 -28 -24 -36 -10 -13 -10 -70 -1 -299 6 -156 15 -393 20 -528 7
-229 17 -418 40 -805 6 -88 10 -223 10 -300 0 -77 4 -212 10 -300 11 -184 28
-521 41 -845 5 -124 13 -328 18 -455 6 -126 17 -356 26 -510 19 -341 32 -650
45 -1020 5 -154 14 -352 19 -440 6 -88 12 -257 13 -376 l3 -216 215 -114 c282
-150 386 -206 555 -296 77 -42 174 -94 215 -116 41 -22 102 -54 135 -72 60
-33 104 -57 290 -155 55 -29 156 -83 225 -120 69 -37 175 -93 235 -125 61 -32
196 -104 300 -160 105 -56 249 -133 320 -170 72 -37 135 -71 140 -75 6 -4 64
-36 130 -70 66 -35 143 -75 170 -90 28 -15 95 -51 150 -80 55 -29 129 -68 165
-87 35 -19 170 -91 300 -160 374 -199 488 -260 595 -318 59 -32 141 -75 360
-190 61 -32 180 -95 265 -140 295 -157 312 -165 345 -165 18 0 48 10 66 23 19
13 82 50 139 82 154 86 480 273 680 390 97 57 198 115 225 131 81 44 107 60
160 91 28 17 109 63 180 103 72 40 174 100 227 132 54 32 216 126 360 210 145
83 281 161 303 174 22 13 69 40 105 60 36 20 108 62 160 92 52 31 154 89 225
130 154 88 330 191 475 277 58 34 137 79 175 100 39 21 88 50 110 65 22 15 90
55 150 90 61 34 184 105 275 158 91 52 170 98 175 102 6 4 30 19 55 33 25 13
86 49 135 77 164 96 243 140 253 140 29 0 34 30 62 420 22 316 40 561 50 680
5 69 14 204 20 300 6 96 17 265 25 375 8 110 19 274 25 365 11 156 27 389 50
685 5 72 14 204 20 295 15 238 39 577 50 706 6 60 10 143 10 184 0 41 4 124
10 184 5 61 17 212 25 336 8 124 20 286 25 360 5 74 14 209 20 300 6 91 15
224 21 295 6 72 15 200 20 285 5 85 12 199 15 253 4 58 2 108 -3 120 -6 12
-14 35 -19 51 -10 33 -24 37 -289 101 -82 20 -195 47 -250 61 -55 14 -118 29
-140 34 -82 18 -263 62 -355 85 -52 14 -180 45 -285 70 -104 25 -217 52 -250
60 -33 8 -172 42 -310 75 -137 34 -277 68 -310 76 -33 8 -98 24 -145 35 -47
11 -101 25 -120 30 -19 5 -84 20 -145 34 -60 14 -126 29 -145 35 -32 8 -92 23
-435 105 -129 31 -510 124 -555 135 -19 5 -150 36 -290 70 -140 33 -271 65
-290 70 -19 5 -64 16 -100 24 -36 8 -130 31 -210 50 -182 44 -413 99 -550 132
-58 13 -119 29 -136 34 -42 14 -64 12 -97 -10z m-4787 -1340 c0 -5 -5 -10 -11
-10 -5 0 -7 5 -4 10 3 6 8 10 11 10 2 0 4 -4 4 -10z m42 -100 c235 -77 354
-115 558 -180 91 -29 224 -71 295 -95 72 -23 184 -59 250 -80 66 -21 201 -64
300 -96 234 -76 286 -93 555 -179 124 -39 257 -82 295 -95 63 -20 340 -109
535 -171 41 -13 122 -39 180 -58 308 -99 399 -128 550 -176 91 -29 224 -72
295 -95 72 -24 218 -71 325 -105 107 -34 227 -72 265 -85 39 -13 158 -51 265
-85 379 -121 524 -170 531 -182 5 -7 6 -31 3 -53 -2 -22 -9 -319 -14 -660 -6
-341 -14 -836 -20 -1100 -5 -264 -14 -734 -20 -1045 -21 -1164 -31 -1708 -41
-2170 -5 -261 -14 -770 -20 -1130 -9 -585 -13 -768 -18 -792 -2 -12 -23 -9
-51 6 -14 7 -65 34 -115 61 -49 26 -146 78 -215 115 -135 73 -230 124 -355
190 -44 23 -111 59 -150 80 -38 21 -115 61 -170 90 -55 29 -199 105 -320 170
-121 64 -256 136 -300 160 -44 23 -112 60 -152 81 -40 22 -105 56 -145 78
-128 67 -421 223 -483 256 -97 52 -491 263 -605 323 -58 30 -127 67 -155 82
-81 44 -193 104 -300 160 -55 29 -120 64 -144 77 -24 13 -91 49 -150 80 -58
30 -128 68 -156 83 -27 15 -93 50 -145 77 -52 28 -169 90 -260 138 -91 48
-203 108 -250 132 -47 25 -112 60 -145 78 -33 18 -96 51 -140 75 -44 23 -85
47 -92 53 -12 12 -17 95 -43 687 -6 129 -15 330 -20 445 -5 116 -15 314 -20
440 -6 127 -15 327 -20 445 -6 118 -15 319 -20 445 -5 127 -17 381 -25 565
-16 351 -28 618 -44 1010 -6 129 -15 330 -20 445 -11 202 -19 381 -41 885 -6
129 -15 326 -20 438 -12 254 -13 242 4 242 8 0 97 -27 198 -60z m10110 -10
c-1 -36 -7 -121 -12 -190 -5 -69 -14 -197 -20 -285 -10 -148 -25 -366 -50
-710 -6 -77 -17 -239 -25 -360 -9 -121 -20 -283 -25 -360 -5 -77 -14 -207 -20
-290 -6 -82 -17 -244 -25 -360 -18 -246 -30 -430 -45 -645 -6 -85 -15 -216
-21 -290 -5 -74 -14 -200 -20 -280 -20 -305 -29 -432 -44 -645 -19 -273 -32
-461 -45 -652 -9 -140 -17 -251 -40 -558 -5 -71 -12 -177 -15 -234 -5 -101
-15 -141 -36 -141 -5 0 -35 -16 -65 -35 -30 -19 -57 -35 -59 -35 -3 0 -22 -11
-43 -24 -29 -18 -296 -174 -457 -266 -64 -37 -154 -89 -247 -143 -54 -32 -142
-82 -195 -113 -54 -31 -116 -67 -138 -80 -22 -13 -89 -52 -148 -87 -60 -34
-123 -70 -140 -80 -18 -11 -106 -62 -197 -114 -91 -53 -182 -106 -202 -119
-21 -13 -39 -24 -42 -24 -2 0 -66 -37 -142 -81 -77 -45 -157 -91 -179 -104
-22 -12 -110 -62 -195 -112 -204 -119 -693 -403 -799 -464 -46 -27 -85 -49
-87 -49 -1 0 -49 -28 -106 -61 -56 -34 -119 -71 -138 -82 -19 -10 -105 -60
-190 -109 -85 -50 -184 -107 -220 -128 -36 -21 -121 -71 -190 -111 -69 -40
-145 -84 -170 -97 -25 -14 -71 -40 -103 -59 -32 -20 -62 -31 -66 -27 -5 5 -4
144 0 309 4 165 13 579 19 920 6 341 15 845 20 1120 6 275 14 748 20 1050 18
1019 21 1198 30 1670 6 259 14 736 20 1060 5 325 12 638 16 698 7 120 1 111
99 145 33 11 105 37 160 57 55 20 129 47 165 60 36 13 110 40 165 60 55 20
161 58 235 85 74 26 180 64 235 84 55 21 125 45 155 56 30 10 66 23 80 28 22
10 222 82 435 159 39 13 93 33 120 43 28 10 84 30 125 45 41 15 116 42 165 60
85 32 140 51 308 111 39 14 81 29 92 34 11 5 53 20 93 34 230 82 299 107 362
131 19 8 67 25 105 38 175 63 413 149 470 170 38 14 87 32 258 93 39 14 81 29
92 34 11 5 67 25 125 45 58 20 148 52 200 71 158 58 221 81 325 119 55 20 127
47 160 60 33 13 71 23 85 22 24 -2 25 -4 22 -67z"/>
<path d="M4580 9590 c-159 -18 -301 -44 -329 -61 -164 -100 -191 -1006 -36
-1187 27 -31 29 -31 244 -13 74 6 186 11 248 11 l114 0 -4 -1002 c-3 -995 -3
-1004 -25 -1085 -47 -177 -136 -299 -262 -361 -90 -45 -265 -68 -361 -47 -125
26 -221 74 -340 171 -36 30 -71 54 -77 54 -20 0 -108 -110 -149 -187 -140
-266 -178 -527 -106 -735 104 -300 425 -575 793 -681 215 -62 494 -80 663 -43
261 57 466 173 672 380 231 231 363 484 427 817 l22 114 3 1679 c3 1524 2
1684 -13 1734 -34 120 -100 205 -194 253 -121 60 -398 137 -614 170 -147 23
-545 34 -676 19z"/>
<path d="M11009 9925 c-170 -27 -372 -90 -585 -180 -223 -95 -2000 -1016
-2059 -1068 l-40 -35 2 -188 c2 -104 58 -1179 126 -2390 124 -2199 124 -2201
148 -2244 13 -24 39 -52 56 -63 38 -21 105 -24 159 -7 47 16 1766 907 1944
1008 164 93 349 216 489 326 131 101 349 311 453 436 218 260 377 569 438 848
72 328 29 740 -102 995 -113 218 -363 346 -655 335 -57 -2 -103 -2 -103 -1 0
1 32 42 71 90 372 462 545 958 500 1432 -39 395 -189 621 -461 697 -78 21
-277 26 -381 9z m-619 -1527 c57 -29 95 -90 115 -183 71 -337 -134 -640 -607
-895 l-76 -41 -6 53 c-7 65 -46 786 -46 846 l0 43 163 79 c239 117 365 144
457 98z m107 -1778 c71 -32 109 -118 119 -270 9 -122 -14 -231 -72 -349 -79
-161 -230 -294 -493 -436 -68 -36 -126 -64 -129 -61 -5 6 -51 769 -52 868 l0
58 138 69 c262 131 395 164 489 121z"/>
</g>
</svg>
