<?xml version="1.0" standalone="no"?>
<!DOCTYPE svg PUBLIC "-//W3C//DTD SVG 20010904//EN"
 "http://www.w3.org/TR/2001/REC-SVG-20010904/DTD/svg10.dtd">
<svg version="1.0" xmlns="http://www.w3.org/2000/svg"
 width="32.000000pt" height="32.000000pt" viewBox="0 0 32.000000 32.000000"
 preserveAspectRatio="xMidYMid meet">

<g transform="translate(0.000000,32.000000) scale(0.100000,-0.100000)"
fill="#000000" stroke="none">
<path d="M125 263 c-11 -3 -31 -10 -45 -16 -24 -9 -22 -11 32 -27 54 -17 60
-17 103 -1 25 9 45 19 45 22 0 4 -17 9 -37 13 -21 3 -47 8 -58 10 -11 2 -29 2
-40 -1z"/>
<path d="M203 198 c-20 -9 -23 -19 -23 -65 0 -29 2 -53 5 -53 4 0 19 7 34 15
16 8 32 11 35 7 4 -3 4 1 1 10 -4 9 -2 19 4 23 15 9 14 25 -3 25 -9 0 -12 8
-8 25 5 28 -8 31 -45 13z m27 -62 c0 -3 -4 -8 -10 -11 -5 -3 -10 -1 -10 4 0 6
5 11 10 11 6 0 10 -2 10 -4z"/>
<path d="M97 170 c4 -23 1 -34 -13 -45 -10 -7 -23 -11 -29 -8 -6 4 -6 2 -2 -3
5 -5 12 -9 15 -9 4 0 13 -4 20 -9 23 -14 42 14 42 60 0 37 -3 44 -20 44 -16 0
-19 -5 -13 -30z"/>
<path d="M163 140 c0 -25 2 -35 4 -22 2 12 2 32 0 45 -2 12 -4 2 -4 -23z"/>
</g>
</svg>
